<?xml version="1.0" encoding="UTF-8" standalone="no"?>
<!-- Created with Inkscape (http://www.inkscape.org/) -->

<svg
   width="58.537922mm"
   height="63.731747mm"
   viewBox="0 0 58.537922 63.731747"
   version="1.1"
   id="svg5"
   inkscape:version="1.2.2 (732a01da63, 2022-12-09)"
   sodipodi:docname="just_sugar_logo.svg"
   xml:space="preserve"
   inkscape:export-filename="just_sugar_logo_f_2.svg"
   inkscape:export-xdpi="12.095238"
   inkscape:export-ydpi="12.095238"
   xmlns:inkscape="http://www.inkscape.org/namespaces/inkscape"
   xmlns:sodipodi="http://sodipodi.sourceforge.net/DTD/sodipodi-0.dtd"
   xmlns="http://www.w3.org/2000/svg"
   xmlns:svg="http://www.w3.org/2000/svg"><sodipodi:namedview
     id="namedview7"
     pagecolor="#ffffff"
     bordercolor="#000000"
     borderopacity="0.25"
     inkscape:showpageshadow="2"
     inkscape:pageopacity="0.0"
     inkscape:pagecheckerboard="0"
     inkscape:deskcolor="#d1d1d1"
     inkscape:document-units="mm"
     showgrid="false"
     inkscape:zoom="0.76880612"
     inkscape:cx="187.95376"
     inkscape:cy="297.86443"
     inkscape:window-width="1920"
     inkscape:window-height="1017"
     inkscape:window-x="-8"
     inkscape:window-y="-8"
     inkscape:window-maximized="1"
     inkscape:current-layer="layer2" /><defs
     id="defs2"><inkscape:path-effect
       effect="roughen"
       id="path-effect35723"
       is_visible="true"
       lpeversion="1.2"
       method="size"
       max_segment_size="0.8"
       segments="2"
       displace_x="0.36;617922273"
       displace_y="0.36;441055007"
       global_randomize="1;33733537"
       handles="along"
       shift_nodes="true"
       fixed_displacement="false"
       spray_tool_friendly="false" /><inkscape:path-effect
       effect="roughen"
       id="path-effect35717"
       is_visible="true"
       lpeversion="1.2"
       method="size"
       max_segment_size="0.8"
       segments="2"
       displace_x="0.36;1957903161"
       displace_y="0.36;1912689115"
       global_randomize="1;1733670414"
       handles="along"
       shift_nodes="true"
       fixed_displacement="false"
       spray_tool_friendly="false" /><inkscape:path-effect
       effect="roughen"
       id="path-effect3641"
       is_visible="true"
       lpeversion="1.2"
       method="size"
       max_segment_size="0.8"
       segments="2"
       displace_x="0.36;1957903161"
       displace_y="0.36;1049933397"
       global_randomize="1;1733670414"
       handles="along"
       shift_nodes="true"
       fixed_displacement="false"
       spray_tool_friendly="false" /><linearGradient
       id="linearGradient3473"
       inkscape:swatch="solid"><stop
         style="stop-color:#5c5c5c;stop-opacity:1;"
         offset="0"
         id="stop3471" /></linearGradient></defs><g
     inkscape:label="Layer 1"
     inkscape:groupmode="layer"
     id="layer1"
     style="display:none"
     transform="translate(-13.23104,-4.6926413)"><g
       id="g48424"
       transform="matrix(0.64671477,0,0,0.64671477,-22.340577,8.6454194)"
       style="display:none"><path
         id="path1327"
         style="fill:#ffffff;stroke:#7f1b26;stroke-width:2;stroke-dasharray:none;stroke-opacity:1"
         d="m 90.496421,125.20851 -0.02465,-0.6966 -0.03233,-0.83443 -0.01162,-0.7518 -0.0039,-0.81912 -0.2214,-0.95872 0.116244,-0.67035 -0.125839,-0.78607 0.0023,-0.73066 -0.128616,-0.80189 0.08575,-0.70219 0.06847,-0.67848 -0.06121,-0.90418 0.01634,-0.84792 0.05351,-0.77757 0.04641,-0.85304 0.09838,-0.59412 -0.253488,-0.74238 0.05432,-0.76139 0.05883,-0.95909 -0.104503,-0.73033 -0.05453,-0.84198 -0.009,-0.84726 -0.01325,-0.71842 0.06235,-0.66424 0.123633,-0.90226 -0.109673,-0.73022 -0.04554,-0.75159 0.05879,-0.69314 0.0084,-0.92315 -0.0021,-0.88859 -0.04099,-0.76528 -0.0095,-0.71776 -0.02292,-0.788332 -0.01442,-0.837826 -0.01325,-0.533806 0.0029,-0.733697 0.03748,-1.021647 -0.253179,-0.817215 -0.102648,-0.888462 0.08622,-0.707163 0.180451,-0.778136 0.127763,-0.564161 0.170189,-0.910286 -0.199605,-0.84808 m -29.746377,-17.000553 0.613036,0.385219 0.591729,0.424722 0.712614,0.404344 0.751635,0.26126 0.836227,0.553133 0.597323,0.38127 0.649006,0.166488 0.711639,0.527877 0.623046,0.487401 0.62332,0.473171 0.634127,0.389718 0.724113,0.416455 0.660775,0.537879 0.634658,0.427444 0.59982,0.346443 0.875613,0.412445 0.647223,0.366441 0.489427,0.33401 0.858456,0.427306 0.617933,0.14476 0.64447,0.406725 0.78464,0.404297 0.898372,0.556234 0.407826,0.312357 0.683333,0.38064 0.528125,0.350601 0.855096,0.32541 0.705283,0.473978 0.684604,0.331987 0.739693,0.42999 0.611578,0.385555 0.680747,0.508366 0.580825,0.449835 0.616229,0.3458 0.792673,0.258461 0.738336,0.453265 0.642582,0.239961 0.721053,0.372889 0.845982,0.431973 0.548318,0.349655 0.666794,0.237543 0.571462,0.511343 1.103806,0.291013 0.402571,0.379535 m 29.744168,-17.425364 -0.80461,0.454842 -0.71223,0.292295 -0.51501,0.337415 -0.62879,0.42508 -0.75133,0.467235 -0.64969,0.09182 -0.76356,0.461433 -0.74823,0.439106 -0.67222,0.367046 -0.66759,0.348347 -0.57052,0.399527 -0.88463,0.606055 -0.54124,0.289755 -0.64732,0.564957 -0.74225,0.426378 -0.60721,0.348198 -0.5597,0.349643 -0.71678,0.382397 -0.69713,0.701669 -0.47098,0.295984 -0.68878,0.427804 -0.68939,0.40918 -0.88042,0.382223 -0.53403,0.228087 -0.70272,0.330725 -0.73052,0.424632 -0.66323,0.39074 -0.67946,0.370267 -0.701,0.378018 -0.405028,0.485403 -0.819093,0.488769 -0.677617,0.405707 -0.707431,0.490621 -0.621967,0.361557 -0.760489,0.38664 -0.646169,0.351661 -0.715802,0.232221 -0.461709,0.330254 -0.867427,0.533167 -0.780065,0.52441 -0.594872,0.334142 -0.700357,0.226148 -0.628163,0.416837 -0.822284,0.43424 m 30.126903,16.922844 -0.76043,0.64279 -0.69233,0.44856 -0.60134,0.39254 -0.64608,0.28892 -0.6543,0.33628 -0.79537,0.44065 -0.44489,0.3943 -0.82409,0.53733 -0.66514,0.31261 -0.58456,0.35375 -0.87745,0.43868 -0.59677,0.45698 -0.73514,0.45863 -0.61121,0.3823 -0.66817,0.37868 -0.58699,0.36232 -0.7087,0.47802 -0.67222,0.37644 -0.65978,0.38135 -0.69508,0.28523 -0.67236,0.52038 -0.68899,0.35894 -0.52081,0.31453 -0.81744,0.59424 -0.78054,0.32107 -0.60662,0.32441 -0.60318,0.39914 -0.67794,0.43153 -0.71949,0.58087 -0.60559,0.36409 -0.648135,0.34296 -0.71134,0.32988 -0.699262,0.36985 -0.715997,0.42099 -0.606308,0.28013 -0.694317,0.40607 -0.741274,0.34831 -0.70768,0.32354 -0.645641,0.40748 -0.913939,0.36048 -0.464867,0.34087 -0.66873,0.45066 -0.733691,0.38852 -0.601267,0.4982 -0.937114,-0.44405 -0.222494,-0.27254 -0.833415,-0.49016 -0.685168,-0.32922 -0.708124,-0.46906 -0.60025,-0.39014 -0.607756,-0.54382 -0.731258,-0.37812 -0.887781,-0.44091 -0.522674,-0.30245 -0.707264,-0.38627 -0.675962,-0.42235 -0.657245,-0.33792 -0.702386,-0.46891 -0.657019,-0.43405 -0.637983,-0.29683 -0.710193,-0.41173 -0.68745,-0.46725 -0.65,-0.29704 -0.672531,-0.35141 -0.736084,-0.3726 -0.682665,-0.37786 -0.727668,-0.38431 -0.663904,-0.51074 -0.593998,-0.35248 -0.736911,-0.37263 -0.818692,-0.34227 -0.616141,-0.36261 -0.712178,-0.49557 -0.670223,-0.32694 -0.835253,-0.34835 -0.588137,-0.53372 -0.498147,-0.30943 -0.724364,-0.38223 -0.709161,-0.40271 -0.658499,-0.35485 -0.784471,-0.32358 -0.652713,-0.30269 -0.662406,-0.41747 -0.824381,-0.33517 -0.594461,-0.3681 -0.59686,-0.41649 -0.754452,-0.46664 -0.58262,-0.40006 -0.01403,-0.77675 -0.01584,-0.68154 0.03003,-0.87056 -0.01583,-0.98173 -0.02188,-0.60361 -0.240845,-0.8341 0.02498,-0.72173 0.02851,-0.81885 -0.03728,-0.73516 0.01173,-0.79317 0.03233,-0.8282 -0.0075,-0.724546 0.02439,-0.796407 0.06007,-0.763485 -0.25896,-0.745766 -0.116251,-0.813587 -0.0851,-0.790185 -0.04074,-0.800104 -0.06259,-0.613901 -0.02783,-0.829709 -0.01213,-0.686907 0.0119,-0.976679 0.127253,-0.771488 -0.02874,-0.802946 0.02343,-0.711355 0.09686,-0.806542 0.181725,-0.806494 0.0065,-0.56918 -0.118593,-0.998691 0.0077,-0.870008 0.09262,-0.730374 0.09939,-0.728168 -0.25884,-0.948545 0.04298,-0.637907 0.192907,-0.848614 -0.03881,-0.862637 0.02828,-0.733346 0.02446,-0.677783 0.04596,-0.812333 -0.03416,-0.797919 -0.06996,-0.856895 0.02583,-0.556851 -0.09079,-1.079046 0.06941,-0.69669 0.586914,-0.487809 0.539106,-0.382107 0.75916,-0.534331 0.69599,-0.40344 0.808612,-0.238748 0.633115,-0.488952 0.656389,-0.316424 0.753218,-0.394778 0.593076,-0.219689 0.662388,-0.538829 0.70612,-0.406118 0.737482,-0.362689 0.654058,-0.647288 0.542673,-0.303947 0.856874,-0.395303 0.430679,-0.337091 0.732126,-0.531659 0.665808,-0.323453 0.758659,-0.460983 0.608303,-0.410307 0.605483,-0.356055 0.789474,-0.438491 0.605438,-0.271416 0.678982,-0.448578 0.581135,-0.3593 0.719503,-0.347621 0.754593,-0.448967 0.602617,-0.416135 0.710369,-0.421233 0.875153,-0.429093 0.50526,-0.258614 0.443865,-0.378669 0.858126,-0.518025 0.728187,-0.253474 0.706618,-0.46986 0.559798,-0.240097 0.805696,-0.665652 0.621834,-0.336138 0.67597,-0.391154 0.78414,-0.371696 0.650872,-0.353797 0.735575,-0.175435 0.746176,-0.2216 0.603408,-0.632471 0.667448,0.388815 0.908346,0.323603 0.728004,0.157399 0.586843,0.271037 0.729771,0.606649 0.59356,0.318236 0.513398,0.572014 0.816417,0.461167 0.572118,0.380243 0.6388,0.312873 0.746982,0.48236 0.650044,0.43733 0.71322,0.341614 0.585057,0.51981 0.680914,0.369074 0.69343,0.310379 0.60143,0.350428 0.94774,0.465897 0.51442,0.315405 0.69492,0.409768 0.65605,0.456821 0.62443,0.349312 0.77954,0.473792 0.63087,0.357654 0.75152,0.295442 0.65511,0.386093 0.48653,0.249412 0.87067,0.415638 0.60739,0.630347 0.69841,0.462232 0.61048,0.328683 0.7575,0.392422 0.60942,0.375573 0.74545,0.293823 0.78315,0.137645 0.92849,0.223277 0.63391,0.322294 0.75168,0.419824 0.63845,0.46513 0.74434,0.455193 0.53833,0.44158 0.72605,0.534471 0.50587,0.340818 0.6718,0.467371 0.0674,0.768508 0.0435,0.783833 -0.12337,0.804009 0.0313,0.802089 -0.0108,0.85303 -0.21975,0.736057 0.0567,0.744396 0.008,0.973263 0.088,0.350459 0.007,1.057401 -0.0161,0.809795 0.21531,0.691308 0.0545,0.815309 0.27144,0.54649 -0.0834,0.952462 -0.23528,0.859687 0.0209,0.702758 -0.16925,0.856074 0.0435,0.911464 -0.0657,0.692702 -0.0857,0.804516 0.24754,0.756108 -0.0658,0.715035 0.0629,1.02373 -0.0511,0.421797 0.1486,0.88454 0.0953,0.924888 -0.0537,0.706444 -0.0708,0.791769 -0.0778,0.525044 -0.12119,1.031834 0.001,0.622978 -0.23498,0.909314 -0.0363,0.883245 0.002,0.78248 0.11696,0.71363 -0.0174,0.81843 0.16152,0.7851 0.0302,0.52684 0.0453,0.96972 0.10208,0.81729 0.12167,0.74302 -0.0809,1.06272 z"
         inkscape:path-effect="#path-effect3641"
         inkscape:original-d="M 90.496421,125.20851 90.282706,90.769399 M 60.350704,73.734926 90.282706,90.769399 M 120.00099,73.364761 90.282706,90.769399 M 120.21471,107.80387 90.496421,125.20851 60.564419,108.17404 60.350704,73.734928 90.068992,56.33029 120.00099,73.364763 Z" /><path
         id="path35713"
         style="fill:#ffffff;stroke:#776e6d;stroke-width:2;stroke-dasharray:none;stroke-opacity:1"
         d="m 130.1797,138.68478 -0.0247,-0.71382 -0.0322,-0.80921 -0.0117,-0.86504 -0.003,-0.66528 -0.22163,-0.74545 0.11691,-0.93837 -0.12586,-0.99992 0.002,-0.53362 -0.1287,-0.76128 0.0859,-0.79625 0.0681,-0.93606 -0.062,-0.69189 0.0158,-0.7366 0.0535,-0.76211 0.0465,-0.82943 0.0984,-0.77214 -0.25284,-0.77206 0.053,-0.65717 0.0585,-0.88635 -0.10442,-0.89903 -0.0558,-0.55112 -0.007,-0.76405 -0.0107,-0.91831 0.0624,-0.72697 0.123,-0.90169 -0.10984,-0.67536 -0.0456,-0.84284 0.0575,-0.75474 0.007,-0.77676 -0.002,-0.86336 -0.0406,-0.54051 -0.005,-1.08206 -0.0253,-0.66505 -0.0144,-0.74543 -0.0108,-1.07326 -0.0106,-0.71115 0.025,-0.61672 -0.25031,-0.75257 -0.0951,-0.74123 0.11049,-0.9053 0.17676,-0.76479 0.12597,-0.87775 0.15305,-0.85135 -0.18724,-0.6095 m -29.74638,-16.99064 0.61304,0.384428 0.59206,0.411203 0.71828,0.23961 0.82167,0.312712 0.83252,0.540774 0.60161,0.229038 0.71427,0.490799 0.59073,0.394551 0.64965,0.467633 0.63724,0.232591 0.73695,0.338344 0.76991,0.440838 0.66179,0.307696 0.72849,0.510289 0.58452,0.359626 0.86444,0.389125 0.65959,0.354442 0.49681,0.365798 0.84109,0.472064 0.59895,0.134723 0.64982,0.436587 0.77074,0.459385 0.87383,0.511922 0.42238,0.301647 0.68324,0.391653 0.52305,0.563873 0.76052,0.501292 0.61735,0.282732 0.73974,0.447365 0.70658,0.367004 0.62899,0.558095 0.61535,0.423684 0.5971,0.449217 0.61608,0.35951 0.7865,0.23421 0.74856,0.36516 0.67368,0.37692 0.67992,0.36945 0.83892,0.30805 0.59219,0.27361 0.69174,0.51646 0.4859,0.48527 1.09191,0.30814 0.39842,0.45071 m 29.74416,-17.488395 -0.80461,0.420191 -0.72708,0.310517 -0.51106,0.332078 -0.62997,0.446759 -0.74231,0.45992 -0.65055,0.248749 -0.69617,0.425107 -0.74657,0.416049 -0.68153,0.365832 -0.67038,0.426797 -0.53722,0.368603 -0.89031,0.65585 -0.52135,0.266737 -0.65256,0.450535 -0.79334,0.473005 -0.59995,0.322223 -0.56903,0.354416 -0.71749,0.441438 -0.67245,0.06111 -0.73378,0.381576 -0.71667,0.458221 -0.6826,0.462543 -0.85533,0.398735 -0.52633,0.421143 -0.61733,0.462463 -0.65404,0.351056 -0.67512,0.441962 -0.66089,0.374692 -0.69461,0.393287 -0.39715,0.374474 -0.86022,0.493259 -0.68553,0.339891 -0.73486,0.4361 -0.64777,0.295775 -0.79072,0.4292 -0.63871,0.39468 -0.69522,0.42131 -0.38644,0.29007 -0.86232,0.45165 -0.80789,0.25024 -0.6998,0.55413 -0.63074,0.48951 -0.53553,0.26235 -0.82551,0.53177 m 30.1269,16.78176 -0.76043,0.59747 -0.76588,0.54838 -0.57695,0.35376 -0.65615,0.40655 -0.60722,0.45805 -0.73271,0.3974 -0.44754,0.34828 -0.84472,0.30858 -0.76549,0.47026 -0.54306,0.50136 -0.80594,0.34632 -0.6176,0.39668 -0.76542,0.41838 -0.63524,0.57648 -0.59364,0.37583 -0.57102,0.38301 -0.6973,0.54864 -0.64247,0.36316 -0.65869,0.37135 -0.69917,0.59865 -0.55082,0.36575 -0.72714,0.39312 -0.51543,0.29735 -0.82593,0.43034 -0.84509,0.35361 -0.60463,0.3338 -0.59998,0.42854 -0.66931,0.39399 -0.7335,0.45611 -0.6568,0.36729 -0.65778,0.35388 -0.70981,0.42843 -0.66496,0.37171 -0.71019,0.39141 -0.61697,0.3083 -0.68783,0.40653 -0.74325,0.43345 -0.68235,0.32119 -0.64238,0.36037 -0.9367,0.42808 -0.43767,0.26307 -0.71231,0.51083 -0.76256,0.28584 -0.64542,0.0551 -0.93711,-0.40471 -0.23565,-0.26076 -0.84071,-0.45547 -0.69862,-0.43294 -0.66565,-0.41611 -0.61014,-0.38649 -0.60966,-0.44984 -0.7683,-0.42761 -0.87357,-0.34644 -0.55561,-0.26757 -0.72704,-0.36978 -0.68508,-0.27935 -0.71625,-0.40984 -0.68414,-0.36815 -0.69159,-0.43094 -0.64389,-0.36161 -0.68283,-0.42216 -0.67414,-0.5447 -0.61176,-0.28195 -0.6681,-0.34457 -0.73563,-0.42836 -0.65781,-0.36737 -0.72391,-0.46052 -0.62996,-0.44171 -0.61142,-0.26439 -0.77292,-0.49628 -0.77564,-0.27783 -0.63052,-0.35006 -0.7179,-0.45541 -0.68422,-0.33811 -0.83191,-0.35299 -0.58502,-0.39235 -0.54789,-0.32908 -0.7218,-0.45978 -0.67634,-0.40769 -0.64655,-0.3511 -0.78025,-0.25422 -0.67903,-0.42475 -0.61927,-0.30614 -0.85096,-0.58408 -0.51014,-0.27148 -0.61189,-0.433 -0.75227,-0.30605 -0.58536,-0.46594 -0.014,-0.80806 -0.0156,-0.71588 0.0305,-0.92086 -0.0148,-0.36912 -0.0264,-1.02916 -0.24143,-0.82818 0.025,-0.82453 0.0286,-0.76562 -0.0373,-0.6876 0.0117,-0.85663 0.0324,-0.87386 -0.007,-0.71171 0.0245,-0.76209 0.06,-0.95872 -0.257797,-0.71466 -0.116713,-0.65239 -0.08468,-0.8315 -0.04073,-0.80852 -0.0627,-0.8172 -0.03192,-0.68139 -0.01322,-0.78404 0.0086,-0.81776 0.1278,-0.80084 -0.02871,-0.80669 0.02336,-0.74258 0.09628,-0.77394 0.182,-0.80745 0.007,-0.932604 -0.118725,-0.677772 0.0076,-0.996368 0.09093,-0.461436 0.100642,-0.849254 -0.257784,-0.81787 0.04588,-0.735925 0.193556,-0.827174 -0.0383,-0.805682 0.0289,-0.814069 0.025,-0.72501 0.047,-0.75166 -0.0339,-0.693858 -0.071,-0.642837 0.0281,-1.110942 -0.08877,-0.527693 0.06906,-0.892453 0.58692,-0.344112 0.60088,-0.648043 0.66324,-0.335554 0.7571,-0.434323 0.81189,-0.584649 0.491,-0.429421 0.64991,-0.421874 0.70972,-0.340722 0.60581,-0.36942 0.60464,-0.413816 0.74758,-0.417296 0.74385,-0.356154 0.65857,-0.327725 0.67746,-0.392761 0.85323,-0.39323 0.4322,-0.309679 0.74478,-0.511805 0.67803,-0.359623 0.74833,-0.559551 0.56806,-0.257916 0.6584,-0.419369 0.7774,-0.379598 0.62762,-0.295536 0.67576,-0.427995 0.58955,-0.382097 0.71321,-0.40998 0.73065,-0.375024 0.62748,-0.317583 0.75414,-0.516419 0.84889,-0.340931 0.53707,-0.281967 0.44169,-0.399638 0.84613,-0.532304 0.72175,-0.23159 0.71732,-0.447632 0.56934,-0.427491 0.7413,-0.664301 0.61237,-0.334213 0.67671,-0.390157 0.78618,-0.336577 0.66105,-0.288813 0.75076,-0.350415 0.71268,-0.339822 0.61837,-0.352336 0.66744,0.453094 0.88064,0.498529 0.64538,0.43851 0.44474,0.295599 0.68523,0.26794 0.72612,0.383961 0.51694,0.524583 0.84117,0.347276 0.62306,0.360476 0.65902,0.38032 0.72296,0.45968 0.6533,0.401652 0.7286,0.373961 0.57393,0.495076 0.69,0.36403 0.69665,0.269521 0.61716,0.400081 0.93106,0.302419 0.5751,0.340256 0.69845,0.407473 0.65704,0.274415 0.6987,0.4412 0.75818,0.442687 0.63776,0.353244 0.75389,0.308453 0.65065,0.34907 0.4998,0.231944 0.87955,0.473148 0.58641,0.375755 0.79284,0.413417 0.65079,0.414923 0.72921,0.418856 0.59251,0.386762 0.73263,0.590083 0.66463,0.443129 0.78097,0.469852 0.48381,0.0087 0.83767,0.4942 0.6248,0.475972 0.74919,0.365213 0.57204,0.357002 0.78898,0.425698 0.56608,0.332311 0.72322,0.423392 0.0674,0.705633 0.0437,0.846708 -0.12338,0.798934 0.0313,0.788794 -0.0108,0.782476 -0.21938,0.823572 0.0566,0.739163 0.008,0.852624 0.0892,0.72181 0.005,0.694903 -0.0153,0.859038 0.21576,0.777292 0.0544,0.811402 0.27147,0.740723 -0.0806,0.718724 -0.23553,0.8722 0.0208,0.698769 -0.16939,0.87051 0.0432,0.76581 -0.0652,0.82005 -0.0858,0.72024 0.24849,0.80397 -0.066,0.87362 0.0622,0.62262 -0.0512,1.07183 0.14706,0.53577 0.0954,0.55153 -0.0583,1.0727 -0.0704,0.82331 -0.0774,0.86705 -0.12164,0.64545 0.001,0.79686 -0.2373,0.82598 -0.0401,0.91799 -0.004,0.46222 0.12774,0.91238 -0.018,0.84795 0.15946,0.73221 0.0312,0.66237 0.0435,0.96996 0.10137,0.70838 0.12459,0.66279 -0.0802,0.98954 z"
         inkscape:path-effect="#path-effect35717"
         inkscape:original-d="m 130.1797,138.68478 -0.21371,-34.43911 m -29.932,-17.03448 29.932,17.03448 m 29.71828,-17.404645 -29.71828,17.404645 m 29.932,17.03447 -29.71829,17.40464 -29.932,-17.03447 -0.21371,-34.439118 29.71828,-17.404638 29.932,17.034473 z" /><path
         id="path35719"
         style="fill:#ffffff;stroke:#1c2743;stroke-width:2;stroke-dasharray:none;stroke-opacity:1"
         d="m 112.88375,99.30816 0.002,-0.807893 0.005,-0.632599 0.0521,-0.998014 -0.2811,-0.449857 -0.0152,-1.094102 -0.0456,-0.914518 -0.0857,-0.720358 -0.0101,-0.668967 0.16569,-0.738483 -0.1125,-0.954885 0.0175,-0.84817 -0.14991,-0.612063 -2.8e-4,-0.725022 -0.15075,-0.67751 0.0946,-0.926007 -0.0263,-0.654819 0.004,-0.892396 9e-4,-0.795 -0.0837,-0.815307 -0.13665,-0.659811 0.047,-0.815585 0.13424,-0.881508 -0.0887,-0.701087 0.0179,-0.777384 0.11589,-0.699734 0.019,-0.955897 -0.11259,-0.64271 0.0259,-0.692499 0.10702,-1.034081 0.0197,-0.659399 0.0209,-0.708323 -0.0492,-0.931347 0.0899,-0.75302 0.16142,-0.658477 -0.0734,-0.924784 -0.0738,-0.750716 0.0228,-0.794229 0.0468,-0.727732 0.0881,-0.881996 -0.008,-0.763501 0.15595,-0.760163 -0.0446,-0.784995 -0.057,-0.744633 0.0249,-0.839522 M 82.738036,47.83457 l 0.606708,0.224511 0.762857,0.469777 0.64273,0.40506 0.743365,0.452507 0.639684,0.343027 0.712423,0.366052 0.367636,0.446078 0.82785,0.492914 0.75861,0.420117 0.678999,0.302498 0.745656,0.413669 0.446211,0.281244 0.844928,0.464883 0.715566,0.351016 0.84788,0.400094 0.533444,0.294919 0.768877,0.488419 0.505398,0.529046 0.669342,0.340501 0.785227,0.335061 0.62991,0.359321 0.789859,0.248107 0.672754,0.188625 0.737591,0.452731 0.561813,0.395962 0.729736,0.341707 0.76598,0.448995 0.6631,0.372361 0.78066,0.432263 0.51753,0.314608 0.72996,0.460716 0.80008,0.189868 0.53736,0.372894 0.77772,0.517862 0.56763,0.377665 0.79646,0.418721 0.46516,0.408634 0.89043,0.46124 0.60498,0.357131 0.5656,0.486497 0.67859,0.454524 0.70112,0.342097 0.75904,0.381606 0.60055,0.276989 m 29.72328,-17.252682 -0.54762,0.494882 -0.72307,0.450476 -0.66497,0.370723 -0.72339,0.280265 -0.70167,0.554163 -0.60131,0.263595 -0.68719,0.427788 -0.8456,0.411286 -0.61972,0.320198 -0.65815,0.32381 -0.6609,0.249731 -0.81257,0.550737 -0.72713,0.327771 -0.54186,0.120521 -0.81007,0.548329 -0.81859,0.411044 -0.5771,0.169122 -0.63572,0.391014 -0.72497,0.443998 -0.84374,0.371398 -0.5316,0.362886 -0.65337,0.419091 -0.60133,0.424401 -0.61418,0.476139 -0.69512,0.443101 -0.62815,0.41311 -0.70061,0.376207 -0.71161,0.44078 -0.67142,0.384584 -0.39145,0.440819 -0.89922,0.55028 -0.61209,0.447557 -0.68028,0.368912 -0.4676,0.362719 -0.81776,0.644636 -0.70661,0.461721 -0.58635,0.386336 -0.69454,0.321484 -0.83582,0.35911 -0.58303,0.295364 -0.71244,0.39897 -0.63971,0.315088 -0.75692,0.265844 -0.53371,0.766001 m 29.7508,16.872873 -0.56077,0.375207 -0.57154,0.356668 -0.73322,0.402282 -0.83007,0.48782 -0.55192,0.389102 -0.41258,0.283239 -0.8715,0.525424 -0.82546,0.405758 -0.53386,0.345591 -0.70866,0.345855 -0.66536,0.510929 -0.57039,0.388438 -0.71661,0.330624 -0.79542,0.42938 -0.63641,0.24992 -0.73343,0.317988 -0.70767,0.480424 -0.65793,0.392055 -0.66736,0.392908 -0.57771,0.399455 -0.54279,0.390969 -0.89703,0.584836 -0.61672,0.393403 -0.55646,0.39495 -0.74641,0.350189 -0.71249,0.424311 -0.65953,0.39042 -0.67775,0.411671 -0.68821,0.326377 -0.54447,0.578227 -0.6682,0.374706 -0.94796,0.441595 -0.53373,0.243431 -0.71032,0.396214 -0.66728,0.452414 -0.57613,0.40147 -0.84895,0.453617 -0.55061,0.311035 -0.40641,0.324117 -0.86163,0.489887 -0.85828,0.497516 -0.55538,0.271128 -0.75502,0.404288 -0.69791,0.248009 -0.6677,-0.344595 -0.7426,-0.417218 -0.69346,-0.567744 -0.55919,-0.224479 -0.79018,-0.395131 -0.63147,-0.351294 -0.69226,-0.390596 -0.6756,-0.378482 -0.72045,-0.386114 -0.6411,-0.373417 -0.67823,-0.439801 -0.6305,-0.293623 -0.71413,-0.288339 -0.76164,-0.665473 -0.26511,-0.313803 -1.12683,-0.492002 -0.52559,-0.351492 -0.64097,-0.375168 -0.714,-0.721901 -0.606436,-0.295502 -0.634407,-0.346569 -0.76485,-0.346907 -0.604768,-0.368151 -0.72446,-0.309839 -0.735844,-0.548089 -0.614839,-0.406205 -0.772659,-0.398828 -0.570121,-0.09704 -0.736842,-0.716108 -0.817894,-0.363507 -0.516386,-0.208235 -0.655404,-0.403278 -0.723174,-0.540191 -0.6195,-0.29343 -0.859161,-0.363579 -0.419137,-0.363908 -0.835694,-0.398843 -0.611801,-0.366671 -0.70303,-0.336553 -0.717939,-0.11101 -0.777257,-0.49676 -0.748713,-0.399728 -0.444797,-0.484842 -0.628097,-0.301044 -0.0699,-0.809489 -0.167615,-0.680111 -0.06867,-0.605203 -0.02118,-1.012506 0.129838,-0.782668 0.103428,-0.837377 -0.06085,-0.650884 -0.118141,-0.926515 -0.116472,-0.746511 -0.140238,-0.807101 0.03049,-0.785888 0.02261,-0.745422 -0.24031,-0.737715 0.03519,-0.934457 -0.02993,-0.684626 -0.0031,-0.818226 0.0075,-0.781652 -0.04268,-0.733787 -0.02224,-0.757584 0.09508,-0.975779 0.105448,-0.433561 -0.02637,-1.051725 -0.01892,-0.586426 -0.140481,-0.888332 0.02449,-0.804721 -0.01345,-0.802795 0.128855,-0.898481 -0.08861,-0.575076 -0.05907,-0.826752 -0.0076,-0.946559 0.140006,-0.621662 0.04293,-0.820901 0.168046,-0.784932 -0.09292,-0.782026 -0.03287,-0.756026 -0.0069,-0.784417 0.06096,-0.800833 -0.03899,-0.802934 0.03445,-0.776046 0.0027,-0.712159 -0.08916,-0.732156 0.0224,-0.919297 0.09853,-0.693966 -0.02184,-0.833222 0.755799,-0.267683 0.602691,-0.431908 0.72662,-0.416606 0.60823,-0.341795 0.752452,-0.41589 0.644396,-0.368239 0.732033,-0.419577 0.64932,-0.552438 0.548957,-0.30465 0.762921,-0.476048 0.577386,-0.228164 0.837712,-0.26213 0.808193,-0.429317 0.622168,-0.322685 0.527437,-0.417026 0.764433,-0.525236 0.670574,-0.418008 0.59509,-0.398732 0.626706,-0.602455 0.692232,-0.540064 0.647857,-0.444619 0.541804,-0.201711 0.779119,-0.440365 0.725411,-0.552018 0.529984,-0.414763 0.707492,-0.327803 0.74573,-0.495304 0.72437,-0.315391 0.55641,-0.395508 0.7257,-0.285655 0.65819,-0.406575 0.74487,-0.365078 0.77955,-0.28523 0.63597,-0.292072 0.5903,-0.421942 0.82956,-0.522739 0.55728,-0.35474 0.70818,-0.404324 0.75742,-0.385751 0.75533,-0.344752 0.51556,-0.491874 0.51874,-0.188894 0.86927,-0.487609 0.65934,-0.40663 0.57842,0.222023 0.81715,0.300648 0.71291,0.417989 0.75298,0.440737 0.68925,0.369878 0.68243,0.57209 0.551,0.297921 0.70248,0.403294 0.58907,0.385616 0.73226,0.47412 0.8055,0.543431 0.57499,0.25501 0.69938,0.630476 0.50171,0.268923 0.66768,0.40837 0.68945,0.393144 0.71017,0.48747 0.63613,0.351094 0.85296,0.407443 0.69553,0.317616 0.38393,0.337134 0.80504,0.448884 0.57706,0.335438 0.98351,0.358087 0.47006,0.322883 0.76546,0.423498 0.89922,0.447494 0.49617,0.420674 0.6133,0.350574 0.67904,0.363544 0.69313,0.265774 0.85472,0.405036 0.77667,0.233733 0.50511,0.370625 0.67217,0.411588 0.80267,0.451327 0.592,0.18029 0.82617,0.607062 0.58686,0.231037 0.65954,0.411075 0.64901,0.343398 0.54674,0.484859 0.67765,0.473079 0.78721,0.348492 0.0169,0.738289 0.0816,0.841228 0.032,0.726638 0.064,1.037264 0.0526,0.612113 0.10849,0.86503 0.0392,0.625968 0.003,0.801416 0.0282,0.87889 -0.0401,0.692596 -0.0132,0.870252 -0.11622,0.723106 0.0143,0.775353 -0.0815,0.855371 0.0189,0.836785 0.001,0.664101 -0.0356,0.776683 0.186,0.733993 -0.0142,0.737236 0.0288,0.956058 0.2219,0.63699 -0.0198,1.002169 -0.0112,0.71829 0.035,0.832358 -0.0579,0.682839 -0.0503,0.754578 -0.0138,0.725002 0.10265,0.820304 -0.0221,0.815628 0.13143,0.793672 0.0487,0.742953 -0.0197,0.84209 -0.0353,0.750425 -0.08,0.851818 -0.0882,0.726497 -0.0452,0.887086 -0.13033,0.665786 -0.002,0.626484 -0.0509,0.874731 0.046,0.881362 -0.097,0.751299 -0.0759,0.797195 -0.0925,0.74311 z"
         inkscape:path-effect="#path-effect35723"
         inkscape:original-d="M 112.88375,99.30816 112.67004,64.86905 M 82.738036,47.83457 112.67004,64.86905 M 142.38832,47.464405 112.67004,64.86905 m 29.932,17.03447 -29.71829,17.40464 -29.932004,-17.03447 -0.21371,-34.439118 29.718284,-17.404638 29.932,17.034473 z" /></g></g><g
     inkscape:groupmode="layer"
     id="layer2"
     inkscape:label="Layer 2"
     transform="translate(-13.23104,-4.6926413)"><g
       id="g310"
       transform="matrix(0.57641926,0,0,0.57642302,-20.977795,-12.18229)"><path
         id="path304"
         style="fill:#ffffff;stroke:#aa1717;stroke-width:2;stroke-dasharray:none;stroke-opacity:1"
         d="M 90.496421,125.20851 90.282706,90.769399 M 60.350704,73.734926 90.282706,90.769399 M 120.00099,73.364761 90.282706,90.769399 M 120.21471,107.80387 90.496421,125.20851 60.564419,108.17404 60.350704,73.734928 90.068992,56.33029 120.00099,73.364763 Z" /><path
         id="path306"
         style="fill:#ffffff;stroke:#000000;stroke-width:2;stroke-dasharray:none;stroke-opacity:1"
         d="m 130.1797,138.68478 -0.21371,-34.43911 m -29.932,-17.03448 29.932,17.03448 m 29.71828,-17.404645 -29.71828,17.404645 m 29.932,17.03447 -29.71829,17.40464 -29.932,-17.03447 -0.21371,-34.439118 29.71828,-17.404638 29.932,17.034473 z" /><path
         id="path308"
         style="fill:#ffffff;stroke:#000096;stroke-width:2;stroke-dasharray:none;stroke-opacity:1"
         d="M 112.88375,99.30816 112.67004,64.86905 M 82.738036,47.83457 112.67004,64.86905 M 142.38832,47.464405 112.67004,64.86905 m 29.932,17.03447 -29.71829,17.40464 -29.932004,-17.03447 -0.21371,-34.439118 29.718284,-17.404638 29.932,17.034473 z" /></g></g></svg>
